<svg width="15" height="10" viewBox="0 0 15 10" fill="none" xmlns="http://www.w3.org/2000/svg">
  <style>
    path {
      fill: #222;
    }

    @media (prefers-color-scheme: dark) {
      path {
        fill: #eee;
      }
    }
  </style>
  <path
    d="M4.224 9.144C3.456 9.144 2.8 8.968 2.256 8.616C1.72 8.256 1.308 7.764 1.02 7.14C0.74 6.516 0.6 5.796 0.6 4.98C0.6 4.148 0.752 3.424 1.056 2.808C1.368 2.184 1.804 1.7 2.364 1.356C2.924 1.012 3.58 0.84 4.332 0.84C5.004 0.84 5.608 0.996 6.144 1.308C6.688 1.62 7.1 2.068 7.38 2.652L6.384 3.012C6.208 2.652 5.94 2.36 5.58 2.136C5.228 1.904 4.792 1.788 4.272 1.788C3.8 1.788 3.372 1.908 2.988 2.148C2.612 2.388 2.312 2.748 2.088 3.228C1.864 3.7 1.752 4.284 1.752 4.98C1.752 5.652 1.856 6.228 2.064 6.708C2.28 7.188 2.576 7.556 2.952 7.812C3.336 8.068 3.776 8.196 4.272 8.196C4.536 8.196 4.808 8.164 5.088 8.1C5.368 8.036 5.624 7.928 5.856 7.776C6.088 7.616 6.276 7.4 6.42 7.128C6.564 6.856 6.636 6.512 6.636 6.096V5.832H4.296V4.86H7.704V9H7.056L6.756 7.992C6.5 8.4 6.148 8.696 5.7 8.88C5.26 9.056 4.768 9.144 4.224 9.144ZM8.23153 9V0.983999H10.4155C11.0555 0.983999 11.6395 1.052 12.1675 1.188C12.7035 1.316 13.1675 1.532 13.5595 1.836C13.9515 2.14 14.2555 2.552 14.4715 3.072C14.6875 3.584 14.7955 4.22 14.7955 4.98C14.7955 5.748 14.6875 6.392 14.4715 6.912C14.2555 7.424 13.9515 7.836 13.5595 8.148C13.1675 8.452 12.7035 8.672 12.1675 8.808C11.6395 8.936 11.0555 9 10.4155 9H8.23153ZM9.35953 8.052H10.3915C10.8075 8.052 11.2075 8.02 11.5915 7.956C11.9835 7.884 12.3315 7.748 12.6355 7.548C12.9475 7.34 13.1915 7.032 13.3675 6.624C13.5515 6.208 13.6435 5.66 13.6435 4.98C13.6435 4.3 13.5515 3.76 13.3675 3.36C13.1915 2.952 12.9475 2.648 12.6355 2.448C12.3315 2.24 11.9835 2.104 11.5915 2.04C11.2075 1.968 10.8075 1.932 10.3915 1.932H9.35953V8.052Z" />
</svg>